<?xml version="1.0" standalone="no"?>
<!DOCTYPE svg PUBLIC "-//W3C//DTD SVG 20010904//EN"
 "http://www.w3.org/TR/2001/REC-SVG-20010904/DTD/svg10.dtd">
<svg version="1.0" xmlns="http://www.w3.org/2000/svg"
 width="182.000000pt" height="182.000000pt" viewBox="0 0 182.000000 182.000000"
 preserveAspectRatio="xMidYMid meet">
<metadata>
Created by potrace 1.11, written by Peter Selinger 2001-2013
</metadata>
<g transform="translate(0.000000,182.000000) scale(0.100000,-0.100000)"
fill="#000000" stroke="none">
<path d="M22 1158 c-9 -9 -12 -85 -12 -279 0 -299 -2 -292 72 -287 l43 3 0
197 c0 108 3 194 6 190 3 -4 16 -36 29 -71 13 -35 46 -120 74 -190 l51 -126
36 -3 c21 -2 40 3 46 10 6 7 39 83 73 168 34 85 67 166 74 180 9 20 12 -12 16
-165 l5 -190 43 -3 c74 -5 72 -12 72 287 0 194 -3 270 -12 279 -7 7 -39 12
-75 12 -50 0 -64 -4 -72 -18 -14 -27 -142 -342 -150 -372 -7 -24 -9 -22 -29
24 -12 27 -22 52 -22 55 0 13 -112 286 -122 299 -14 16 -130 16 -146 0z"/>
<path d="M1073 1043 c-9 -3 -13 -26 -13 -65 l0 -60 -33 6 c-86 16 -177 -76
-177 -179 0 -45 33 -115 66 -139 26 -18 40 -19 174 -13 l45 2 3 219 c2 227 1
237 -38 235 -8 0 -21 -3 -27 -6z m-19 -209 c3 -9 6 -49 6 -89 0 -63 -3 -76
-19 -85 -31 -16 -51 -12 -82 19 -39 39 -40 96 -3 140 29 35 87 44 98 15z"/>
<path d="M1295 916 c-56 -21 -75 -37 -97 -79 -43 -84 -16 -192 59 -232 44 -24
131 -24 167 0 31 20 33 36 7 59 -17 16 -20 16 -48 0 -34 -20 -73 -14 -103 16
-42 42 -28 50 79 50 116 0 127 7 117 73 -13 84 -106 142 -181 113z m88 -84
c23 -26 13 -32 -53 -32 -66 0 -76 6 -53 32 22 24 84 24 106 0z"/>
<path d="M1484 894 c4 -14 15 -45 25 -68 11 -22 36 -81 56 -131 39 -94 51
-115 67 -115 7 0 78 140 78 155 0 2 13 34 30 69 16 36 32 77 36 91 6 24 4 25
-34 25 -34 0 -42 -4 -47 -22 -6 -23 -21 -60 -35 -88 -4 -9 -11 -30 -15 -48 -7
-32 -25 -45 -25 -18 0 8 -14 51 -32 95 l-31 81 -40 0 c-37 0 -39 -1 -33 -26z"/>
<path d="M710 685 c-20 -21 -22 -30 -14 -52 22 -62 116 -51 122 14 6 59 -65
84 -108 38z"/>
</g>
</svg>
